<svg fill="none" height="257" viewBox="0 0 1894 257" width="1894" xmlns="http://www.w3.org/2000/svg"><g fill="#191919"><path d="m293.781 50.8298c38.37 0 75.87 22.62 75.87 73.0102 0 4-.22 10.2-.66 14.56-.1 1-.95 1.76-1.96 1.76h-107.62c3.15 18.04 15.75 29.78 35.5 29.78 13.1 0 21.46-7.24 26.01-15.9.57-1.09 1.81-1.66 3.01-1.4l40.24 8.77c1.23.27 1.88 1.59 1.38 2.74-9.41 21.31-30.81 42.43-70.92 42.43-52.68 0-80.74-34.36-80.74-77.88 0-43.5202 29.2-77.8802 79.88-77.8802zm30.92 61.8502c-2-17.1802-13.46-26.3402-30.06-26.3402-21.76 0-30.92 11.17-34.36 26.3402z"/><path d="m383.4 200.04v-142.6502c0-1.09.88-1.97 1.97-1.97h41.87c1.09 0 1.97.88 1.97 1.97v16.9301c10.02-15.75 24.91-23.4801 44.09-23.4801 28.06 0 52.11 19.18 52.11 62.1302v87.07c0 1.09-.88 1.97-1.97 1.97h-41.87c-1.09 0-1.97-.88-1.97-1.97v-80.49c0-19.18-10.02-29.7801-24.62-29.7801-15.75 0-25.77 10.3101-25.77 33.7901v76.48c0 1.09-.88 1.97-1.97 1.97h-41.87c-1.09 0-1.97-.88-1.97-1.97z"/><path d="m528.22 55.4098h44.41c.87 0 1.63.57 1.89 1.4l33.36 110.5502 33.36-110.5502c.25-.83 1.02-1.4 1.89-1.4h44.41c1.36 0 2.32 1.35 1.85 2.64l-51.08 142.1302c-.39 1.09-1.43 1.83-2.6 1.83h-55.67c-1.16 0-2.2-.73-2.6-1.83l-51.08-142.1302c-.46-1.28.49-2.64 1.85-2.64z"/><path d="m786.541 200.04v-22.37c-7.16 14.89-23.19 28.92-48.1 28.92-28.92 0-50.39-18.32-50.39-44.09 0-27.2 18.04-47.53 57.55-47.53h22.91c12.6 0 16.03-9.16 14.89-15.1701-1.72-10.31-10.88-15.75-23.76-15.75-16.27 0-26.12 8.99-27.36 21.3701-.11 1.13-1.15 1.94-2.27 1.75l-38.84-6.47c-1.08-.18-1.82-1.2102-1.62-2.2802 6.33-33.79 38.37-47.58 71.25-47.58s69.29 8.02 69.29 68.7202v80.49c0 1.09-.88 1.97-1.97 1.97h-39.58c-1.09 0-1.97-.88-1.97-1.97zm-34.64-26.66c18.32 0 30.92-13.74 32.35-30.92h-27.77c-16.89 0-22.91 6.87-22.62 16.32.29 10.02 8.3 14.6 18.04 14.6z"/><path d="m836.94 90.0898v-32.71c0-1.09.88-1.97 1.97-1.97h16.35c7.59 0 13.74-6.15 13.74-13.74v-25.52c0-1.09.88-1.97 1.97-1.97h37.29c1.09 0 1.97.88 1.97 1.97v39.26h30.101c1.09 0 1.969.88 1.969 1.97v32.71c0 1.09-.879 1.97-1.969 1.97h-30.101v52.9702c0 17.26 14.67 24.29 29.99 18.85 1.02-.36 2.08.41 2.08 1.48v34.51c0 1.27-.859 2.39-2.089 2.68-3.96.94-9.451 1.75-15.941 1.75-35.5 0-59.84-12.03-59.84-63.56v-48.6702h-25.52c-1.09 0-1.97-.88-1.97-1.97z"/><path d="m1109.52 128.71c0 42.95-30.35 77.88-80.17 77.88-49.819 0-80.169-34.93-80.169-77.88 0-42.9502 30.35-77.8802 80.169-77.8802 49.82 0 80.17 34.93 80.17 77.8802zm-45.81 0c0-21.19-11.74-38.9402-34.36-38.9402s-34.359 17.7502-34.359 38.9402 11.739 38.94 34.359 38.94 34.36-17.75 34.36-38.94z"/></g><path d="m102.231 256.75c6.323 0 11.45-5.127 11.45-11.45 0-6.324-5.127-11.45-11.45-11.45-6.3239 0-11.4502 5.126-11.4502 11.45 0 6.323 5.1263 11.45 11.4502 11.45z" fill="#87e64b"/><path d="m168.001 167.33-64.51 6.91c-1.18.13-1.79-1.38-.85-2.11l63.13-49.15c4.1-3.35 6.71-8.57 5.59-14.16-1.12-8.57-8.2-14.1601-17.14-13.0401l-68.5902 10.0401c-1.21.18-1.86-1.37-.89-2.11l67.9902-51.9101c13.42-10.43 14.53-30.9301 2.24-42.85005-11.18-11.18-29.07-10.80999-40.25.37001l-109.56021 111.42014c-4.1 4.47-5.959994 10.43-4.839994 16.77 1.860004 10.06 11.920004 16.77 21.990004 14.91l59.06-12.05c1.28-.26 1.98 1.45.87 2.15l-65.53 41.94c-8.2 5.22-11.92 14.53-9.32 23.85 2.61 12.3 14.91 19.38 26.83 16.4l97.9502-24.13c1.1-.27 1.91 1.01 1.2 1.89l-15.3 18.88c-4.1 5.22 2.61 12.3 8.2 8.2l50.31-41.36c8.94-7.45 2.98-21.99-8.57-20.87z" fill="#87e64b"/><path d="m1155.36 200.04v-138.0498c0-1.09.88-1.97 1.97-1.97h14.38c1.09 0 1.97.88 1.97 1.97v18.64c8.87-15.46 20.61-22.9 36.64-22.9 20.61 0 32.92 9.45 40.94 28.63 9.16-19.18 21.76-28.63 41.51-28.63 24.33 0 45.8 13.17 45.8 56.9698v85.34c0 1.09-.88 1.97-1.97 1.97h-14.38c-1.09 0-1.97-.88-1.97-1.97v-88.49c0-26.0498-12.31-36.6398-31.49-36.6398s-32.63 14.03-32.63 39.2198v85.92c0 1.09-.88 1.97-1.97 1.97h-14.38c-1.09 0-1.97-.88-1.97-1.97v-88.49c0-26.0498-12.31-36.6398-31.49-36.6398s-32.64 14.03-32.64 36.9298v88.21c0 1.09-.88 1.97-1.97 1.97h-14.38c-1.09 0-1.97-.88-1.97-1.97z" fill="#191919"/><path d="m1451.94 200.04v-27.8c-9.16 19.75-27.2 32.06-50.39 32.06-26.34 0-45.8-16.6-45.8-41.8 0-30.06 22.04-44.66 50.96-44.66h30.63c10.88 0 14.03-6.01 12.88-15.46-1.43-12.3098-10.88-28.6298-35.78-28.6298s-37.55 14.84-39.57 28.8798c-.16 1.11-1.22 1.85-2.31 1.63l-13.75-2.66c-1.06-.21-1.78-1.23-1.57-2.2898 5.6-28.44 30.02-41.59 56.91-41.59s56.11 11.45 56.11 63.2698v79.05c0 1.09-.88 1.97-1.97 1.97h-14.38c-1.09 0-1.97-.88-1.97-1.97zm-44.09-66.74c-24.05 0-33.78 12.6-33.78 27.77 0 14.03 9.16 27.2 27.77 27.2 28.34 0 48.95-20.9 50.1-54.96h-44.09z" fill="#191919"/><path d="m1556.43 75.9502c0 1.21-1.08 2.14-2.27 1.94-25.96-4.41-43.53 15.74-43.53 39.9498v82.19c0 1.09-.88 1.97-1.97 1.97h-14.38c-1.09 0-1.97-.88-1.97-1.97v-138.0498c0-1.09.88-1.97 1.97-1.97h14.38c1.09 0 1.97.88 1.97 1.97v24.94c6.58-18.61 21.76-29.2 40.65-29.2 1.11 0 2.33.12 3.45.28.98.14 1.71.97 1.71 1.95v15.99z" fill="#191919"/><path d="m1687.46 202.01h-18.99c-.61 0-1.18-.28-1.55-.76l-57.24-73.39-18.89 16.89v55.28c0 1.09-.88 1.97-1.97 1.97h-14.38c-1.09 0-1.97-.88-1.97-1.97v-179.2797c0-1.09.88-1.97 1.97-1.97h14.38c1.09 0 1.97.88 1.97 1.97v101.9497l69.87-62.1997c.36-.32.83-.5 1.31-.5h19.81c1.81 0 2.66 2.25 1.3 3.45l-59.94 52.9497 65.86 82.4c1.03 1.29.11 3.2-1.54 3.2z" fill="#191919"/><path d="m1750.53 57.7302c31.49 0 64.41 20.33 64.41 68.4198 0 2.91-.17 5.46-.39 7.67-.1 1.01-.95 1.78-1.96 1.78h-112.45c2.58 31.2 22.62 51.53 51.24 51.53 23.2 0 37.08-13.86 42.91-28.21.36-.9 1.3-1.42 2.25-1.21l13.44 2.91c1.15.25 1.82 1.44 1.45 2.56-6.22 19.03-25.55 41.12-60.05 41.12-44.94 0-69.28-34.07-69.28-73.29 0-43.5098 28.06-73.2898 68.42-73.2898zm46.09 61.8298c-2-29.1998-20.61-45.7998-45.52-45.7998-27.77 0-44.94 15.17-50.38 45.7998z" fill="#191919"/><path d="m1815.8 74.0803v-12.09c0-1.09.88-1.97 1.97-1.97h12.92c7.59 0 13.74-6.15 13.74-13.74v-25.51c0-1.09.88-1.97 1.97-1.97h13.24c1.09 0 1.97.88 1.97 1.97v39.25h30.09c1.09 0 1.97.88 1.97 1.97v12.09c0 1.09-.88 1.97-1.97 1.97h-30.09v83.0197c0 27.92 16.87 29.41 29.6 26.17 1.25-.32 2.47.61 2.47 1.9v12.82c0 .9-.61 1.68-1.48 1.91-3.22.85-7.2 1.28-11.4 1.28-27.2 0-37.5-14.89-37.5-46.09v-81.0197h-25.51c-1.09 0-1.97-.88-1.97-1.97z" fill="#191919"/></svg>