<?xml version="1.0" encoding="UTF-8"?>
<svg width="145px" height="18px" viewBox="0 0 145 18" version="1.1" xmlns="http://www.w3.org/2000/svg" xmlns:xlink="http://www.w3.org/1999/xlink">
    <!-- Generator: Sketch 47.1 (45422) - http://www.bohemiancoding.com/sketch -->
    <title>envato-market-api</title>
    <desc>Created with Sketch.</desc>
    <defs></defs>
    <g id="Page-1" stroke="none" stroke-width="1" fill="none" fill-rule="evenodd">
        <g id="envato-market-api" transform="translate(-1.000000, 0.000000)" fill-rule="nonzero">
            <path d="M11.493,3.654 C11.081,3.425 9.901,3.567 8.483,4.006 C6.002,5.702 3.907,8.201 3.761,12.214 C3.735,12.31 3.49,12.2 3.441,12.171 C2.771,10.887 2.505,9.535 3.065,7.584 C3.169,7.41 2.828,7.196 2.767,7.257 C2.645,7.379 2.133,7.925 1.792,8.514 C0.106,11.437 1.209,15.184 4.158,16.824 C5.57411541,17.6123936 7.24542426,17.8059285 8.80423749,17.3620268 C10.3630507,16.9181251 11.6816706,15.8731512 12.47,14.457 C14.37,11.055 12.606,4.276 11.493,3.654 Z" id="Shape" fill="#81B441"></path>
            <path d="M22.046,5.288 C18.55,5.288 16.013,7.887 16.013,11.467 C16.013,15.076 18.544,17.598 22.168,17.598 C23.998,17.598 25.447,17.026 26.6,15.848 C26.944,15.476 26.981,15.118 26.981,14.981 C26.981,14.397 26.547,13.973 25.949,13.973 C25.647,13.973 25.395,14.086 25.106,14.354 C24.454,14.962 23.594,15.584 22.168,15.584 C20.184,15.584 18.571,14.094 18.469,12.182 L26.364,12.182 C27.222,12.182 27.639,11.78 27.639,10.955 C27.639,10.712 27.639,10.537 27.59,10.191 C27.165,7.12 25.093,5.288 22.046,5.288 Z M22.046,7.204 C23.942,7.204 25.158,8.412 25.233,10.362 L18.472,10.362 C18.649,8.558 20.175,7.204 22.046,7.204 Z M35.179,5.288 C33.591,5.288 32.019,6.201 31.405,7.469 L31.405,6.685 C31.405,5.471 30.464,5.41 30.276,5.41 C29.718,5.41 29.123,5.745 29.123,6.685 L29.123,16.151 C29.123,17.413 30.124,17.475 30.326,17.475 C30.526,17.475 31.528,17.413 31.528,16.151 L31.528,11.077 C31.528,8.869 32.779,7.327 34.57,7.327 C36.305,7.327 37.149,8.465 37.149,10.808 L37.149,16.151 C37.149,17.413 38.151,17.475 38.352,17.475 C38.552,17.475 39.555,17.413 39.555,16.151 L39.555,10.052 C39.553,7.749 38.403,5.288 35.179,5.288 L35.179,5.288 Z M50.434,5.41 C49.878,5.41 49.475,5.734 49.235,6.372 L45.944,14.647 L42.679,6.372 C42.423,5.725 42.024,5.41 41.456,5.41 C40.792,5.41 40.253,5.927 40.253,6.563 C40.253,6.72 40.271,6.924 40.403,7.244 L44.185,16.172 C44.635,17.249 45.376,17.475 45.919,17.475 C46.461,17.475 47.203,17.249 47.655,16.173 L51.461,7.194 C51.591,6.879 51.611,6.648 51.611,6.538 C51.612,5.895 51.104,5.41 50.434,5.41 L50.434,5.41 Z M57.427,5.288 C55.889,5.288 54.456,5.716 53.394,6.494 C53.034,6.743 52.858,7.053 52.858,7.443 C52.858,7.98 53.268,8.401 53.792,8.401 C54.019,8.401 54.273,8.311 54.506,8.148 C55.419,7.539 56.278,7.255 57.207,7.255 C58.985,7.255 60.006,8.159 60.006,9.736 L60.006,9.997 C56.014,10.002 51.955,10.483 51.955,13.956 C51.955,16.455 54.091,17.574 56.207,17.574 C57.893,17.574 59.239,16.906 60.103,15.641 L60.103,16.249 C60.103,17.154 60.711,17.476 61.233,17.476 C61.343,17.476 62.313,17.441 62.313,16.249 L62.313,9.881 C62.313,7.005 60.486,5.288 57.427,5.288 L57.427,5.288 Z M59.5,11.767 L60.006,11.767 L60.006,12.321 C60.006,14.348 58.715,15.657 56.719,15.657 C56.177,15.657 54.408,15.53 54.408,13.907 C54.409,11.988 57.314,11.767 59.5,11.767 Z M68.576,7.595 C69.628,7.595 69.681,6.776 69.681,6.612 C69.681,6.125 69.39,5.605 68.576,5.605 L66.412,5.605 L66.412,3.416 C66.412,2.438 65.777,2.092 65.234,2.092 C65.033,2.092 64.031,2.155 64.031,3.416 L64.031,13.809 C64.031,16.207 65.214,17.475 67.453,17.475 C68.032,17.475 68.597,17.373 68.966,17.202 C69.389,16.991 69.632,16.643 69.632,16.249 C69.632,15.694 69.229,15.29 68.673,15.29 C68.566,15.29 68.413,15.317 68.244,15.365 C68.0818417,15.4104497 67.9143989,15.4343221 67.746,15.436 C66.835,15.436 66.411,14.842 66.411,13.565 L66.411,7.595 L68.576,7.595 L68.576,7.595 Z M76.528,5.288 C72.891,5.288 70.252,7.866 70.252,11.418 C70.252,13.147 70.892,14.723 72.052,15.856 C73.203,16.979 74.793,17.598 76.529,17.598 C80.121,17.598 82.83,14.941 82.83,11.418 C82.83,7.866 80.179,5.288 76.528,5.288 L76.528,5.288 Z M76.528,15.559 C74.034,15.559 72.729,13.476 72.729,11.418 C72.729,8.59 74.699,7.303 76.528,7.303 C78.358,7.303 80.327,8.59 80.327,11.418 C80.327,14.263 78.358,15.559 76.528,15.559 Z" id="Shape" fill="#121112"></path>
            <path d="M101.727,6.141 C101.3718,5.75523674 100.926022,5.46412345 100.43,5.294 C99.5,4.971 98.231,4.944 97.221,5.265 C96.7619069,5.40867885 96.3257985,5.61747203 95.926,5.885 C95.4262422,6.22106778 94.9968821,6.65144689 94.662,7.152 C94.415,6.541 94.051,6.065 93.573,5.734 C92.906,5.271 92.047,5.037 91.02,5.037 C90.496,5.037 89.998,5.121 89.542,5.286 C88.6586533,5.60181642 87.8909552,6.17645739 87.339,6.935 L87.339,5.608 C87.339,5.40917749 87.1778225,5.248 86.979,5.248 L86.399,5.248 C86.2001775,5.248 86.039,5.40917749 86.039,5.608 L86.039,17.026 C86.039,17.224 86.2,17.386 86.399,17.386 L86.979,17.386 C87.1778225,17.386 87.339,17.2248225 87.339,17.026 L87.339,9.843 C87.405,9.505 87.527,9.128 87.7,8.72 C87.875,8.308 88.116,7.915 88.416,7.553 C88.709,7.199 89.076,6.899 89.505,6.662 C89.921,6.433 90.419,6.317 90.988,6.317 C91.404,6.317 91.793,6.366 92.143,6.462 C92.47,6.552 92.746,6.705 92.982,6.929 C93.216,7.152 93.404,7.463 93.539,7.853 C93.68,8.259 93.752,8.79 93.752,9.428 L93.752,17.027 C93.752,17.225 93.912,17.386 94.111,17.386 L94.681,17.386 C94.8794326,17.3860008 95.0404488,17.2254319 95.041,17.027 L95.04,9.453 C95.052,9.282 95.095,9.082 95.17,8.864 C95.2524378,8.62494243 95.3600418,8.39532029 95.491,8.179 C95.63,7.946 95.803,7.714 96.004,7.491 C96.198,7.274 96.433,7.075 96.7,6.904 C96.967,6.733 97.274,6.592 97.61,6.485 C97.9756103,6.37510885 98.3552328,6.318856 98.737,6.318 L98.811,6.318 C99.194,6.318 99.555,6.366 99.881,6.462 C100.208,6.558 100.483,6.72 100.719,6.957 C100.955,7.193 101.145,7.526 101.281,7.947 C101.424,8.387 101.496,8.957 101.496,9.64 L101.496,17.028 C101.496551,17.2264319 101.657567,17.3870008 101.856,17.387 L102.426,17.387 C102.624042,17.3864506 102.784451,17.2260422 102.785,17.028 L102.785,9.639 C102.785,8.847 102.696,8.158 102.521,7.591 C102.343,7.008 102.074,6.52 101.727,6.141 L101.727,6.141 Z M113.28,16.436 C113.244878,16.2651873 113.216523,16.0930529 113.195,15.92 C113.144635,15.5239783 113.118919,15.1252104 113.118,14.726 L113.118,9.006 C113.118,8.36 113.006,7.781 112.786,7.282 C112.575073,6.79505927 112.253977,6.36373645 111.848,6.022 C111.432936,5.68287923 110.954202,5.43025208 110.44,5.279 C109.362,4.951 107.974,4.95 106.893,5.326 C106.36766,5.50196608 105.877236,5.76866979 105.444,6.114 C105.03,6.451 104.704,6.848 104.475,7.296 C104.244271,7.73953646 104.123546,8.23203964 104.123,8.732 C104.122892,8.92622896 104.276879,9.08552573 104.471,9.092 L105.04,9.113 C105.137647,9.11596333 105.232366,9.07944354 105.302749,9.01169503 C105.373132,8.94394652 105.413238,8.85068864 105.414,8.753 C105.414,8.418 105.49,8.113 105.648,7.823 C105.81,7.528 106.037,7.268 106.322,7.05 C106.63772,6.81493835 106.991556,6.63599107 107.368,6.521 C107.801064,6.38807823 108.252017,6.32264462 108.705,6.327 C109.728,6.327 110.517,6.563 111.047,7.029 C111.572,7.489 111.827,8.129 111.827,8.985 L111.827,10.292 L109.455,10.292 C108.605,10.292 107.83,10.383 107.146,10.562 C106.456,10.745 105.86,11.002 105.375,11.329 C104.875,11.666 104.488,12.079 104.223,12.556 C103.954134,13.0385731 103.814941,13.5825968 103.819,14.135 C103.819,14.639 103.913,15.111 104.096,15.533 C104.282,15.959 104.549,16.332 104.893,16.639 C105.235,16.945 105.648,17.183 106.123,17.349 C106.592,17.513 107.12,17.596 107.693,17.596 C108.246828,17.6018117 108.799081,17.5359313 109.336,17.4 C109.804027,17.2782774 110.254896,17.0981988 110.678,16.864 C111.063139,16.6476762 111.418461,16.3821091 111.735,16.074 L111.866,15.939 L111.878,16.089 C111.911,16.487 111.971,16.835 112.055,17.124 C112.099863,17.2784113 112.241204,17.3847224 112.402,17.385 L113.055,17.385 C113.253823,17.385 113.415,17.2238225 113.415,17.025 L113.415,16.931 C113.415,16.881 113.405,16.831 113.385,16.786 C113.338866,16.6729674 113.303704,16.5557617 113.28,16.436 Z M107.693,16.318 C107.328943,16.3224721 106.966882,16.2635949 106.623,16.144 C106.324797,16.0401691 106.049186,15.8803012 105.811,15.673 C105.592707,15.4841495 105.415689,15.2523248 105.291,14.992 C105.169675,14.7375254 105.107457,14.4589125 105.109,14.177 C105.109,13.811 105.199,13.484 105.384,13.175 C105.592632,12.8435505 105.874531,12.5643886 106.208,12.359 C106.581,12.122 107.046,11.933 107.589,11.798 C108.21082,11.653815 108.847733,11.5849868 109.486,11.593 L111.827,11.593 L111.827,13.865 C111.657,14.227 111.446,14.556 111.201,14.844 C110.658967,15.480227 109.932948,15.932679 109.123,16.139 C108.656426,16.2620552 108.175509,16.3222539 107.693,16.318 L107.693,16.318 Z M120.316,5.177 C120.183352,5.12807349 120.045931,5.09321558 119.906,5.073 C119.733559,5.04714247 119.559364,5.03477163 119.385,5.036 C118.374,5.036 117.517,5.295 116.837,5.805 C116.53,6.034 116.257,6.304 116.021,6.609 L116.021,5.608 C116.021,5.51234855 115.982935,5.42062927 115.915205,5.35308735 C115.847476,5.28554544 115.755651,5.2477343 115.66,5.248 L115.091,5.248 C114.892405,5.24854937 114.731549,5.40940549 114.731,5.608 L114.731,17.025 C114.731,17.224 114.893,17.386 115.091,17.386 L115.66,17.386 C115.859375,17.386 116.021,17.2243748 116.021,17.025 L116.021,9.576 C116.101451,9.12538817 116.237141,8.6864115 116.425,8.269 C116.597162,7.88738279 116.832841,7.53775181 117.122,7.235 C117.397,6.95 117.727,6.723 118.103,6.56 C118.509175,6.39193419 118.945484,6.30889249 119.385,6.316 C119.504,6.316 119.619,6.322 119.729,6.335 L120.079,6.377 C120.276531,6.40117506 120.456537,6.26136954 120.482,6.064 L120.546,5.558 C120.565305,5.3933849 120.470657,5.23659875 120.316,5.177 L120.316,5.177 Z M125.099,10.502 L130.09,5.872 C130.25103,5.87185225 130.392376,5.76478393 130.436127,5.6098116 C130.479879,5.45483927 130.415393,5.28966085 130.278215,5.20532346 C130.141037,5.12098607 129.964536,5.13800527 129.846,5.247 L129.034,5.247 C128.94307,5.24653612 128.855409,5.28088483 128.789,5.343 L123.594,10.147 L122.862,10.839 L122.862,0.817 C122.862,0.61817749 122.700823,0.457 122.502,0.457 L121.932,0.457 C121.733568,0.457551202 121.572999,0.618567361 121.573,0.817 L121.573,17.026 C121.573,17.224 121.734,17.386 121.932,17.386 L122.502,17.386 C122.700823,17.386 122.862,17.2248225 122.862,17.026 L122.862,12.464 L124.142,11.363 L129.161,17.259 C129.23,17.339 129.33,17.386 129.435,17.386 L130.183,17.386 C130.336945,17.3853297 130.473527,17.2871082 130.523155,17.141381 C130.572784,16.9956538 130.524538,16.8344878 130.403,16.74 L125.099,10.502 L125.099,10.502 Z M138.361,6.507 C137.946312,6.04241465 137.436873,5.67209892 136.867,5.421 C135.689,4.898 134.179,4.9 132.955,5.494 C132.328349,5.79890957 131.771393,6.22990417 131.319,6.76 C130.84064,7.32684636 130.469579,7.97611853 130.224,8.676 C129.951171,9.4526592 129.815482,10.2708482 129.823,11.094 L129.823,11.558 C129.823,12.428 129.963,13.24 130.237,13.97 C130.493697,14.6720003 130.880452,15.319307 131.377,15.878 C131.854484,16.4092639 132.434431,16.8385268 133.082,17.14 C133.732,17.443 134.439,17.596 135.186,17.596 C135.669,17.596 136.121,17.546 136.526,17.449 C136.914753,17.3577705 137.291122,17.2201153 137.647,17.039 C137.979066,16.8687636 138.287085,16.655235 138.563,16.404 C138.829,16.162 139.067,15.89 139.271,15.595 C139.383505,15.4326864 139.344241,15.2100377 139.183,15.096 L138.782,14.812 C138.625181,14.6989561 138.40694,14.730829 138.289,14.884 C138.069,15.169 137.839,15.404 137.604,15.585 C137.371,15.765 137.124,15.911 136.872,16.019 C136.615852,16.1272078 136.347578,16.2040974 136.073,16.248 C135.253,16.381 134.344,16.324 133.594,15.954 C133.098907,15.7098693 132.658386,15.3679974 132.299,14.949 C131.919439,14.5022903 131.624912,13.9898341 131.43,13.437 C131.216858,12.8339837 131.10994,12.1985635 131.114,11.559 L131.114,11.296 L139.312,11.296 C139.407478,11.296 139.499045,11.2580715 139.566558,11.1905584 C139.634072,11.1230453 139.672,11.0314779 139.672,10.936 L139.672,10.271 C139.672,9.508 139.557,8.8 139.328,8.165 C139.115857,7.55502811 138.787465,6.99197229 138.361,6.507 L138.361,6.507 Z M136.367,6.632 C136.7777,6.83402104 137.142038,7.1190225 137.437,7.469 C137.734,7.824 137.968,8.245 138.132,8.718 C138.274,9.127 138.355,9.559 138.376,10.007 L131.196,10.007 C131.27,9.573 131.389,9.162 131.553,8.778 C131.764,8.284 132.041,7.847 132.378,7.482 C132.705118,7.12518366 133.098835,6.8357561 133.537,6.63 C134.394,6.231 135.533,6.224 136.367,6.632 L136.367,6.632 Z M145.588,16.51 C145.551095,16.3204454 145.373606,16.1919192 145.182,16.216 C145.004157,16.2420873 144.825784,16.2644256 144.647,16.283 C144.336,16.316 143.897,16.334 143.544,16.232 C143.395197,16.1876812 143.262035,16.1020271 143.16,15.985 C143.041,15.855 142.941,15.66 142.866,15.404 C142.785,15.131 142.744,14.756 142.744,14.293 L142.744,6.549 L144.979,6.549 C145.177823,6.549 145.339,6.38782251 145.339,6.189 L145.339,5.609 C145.339,5.51352206 145.301072,5.42195466 145.233558,5.35444156 C145.166045,5.28692846 145.074478,5.249 144.979,5.249 L142.744,5.249 L142.744,2.527 C142.744,2.43134855 142.705935,2.33962927 142.638205,2.27208735 C142.570476,2.20454544 142.478651,2.1667343 142.383,2.167 L141.803,2.167 C141.707614,2.16699963 141.616149,2.20495998 141.548794,2.27250197 C141.48144,2.34004397 141.443734,2.43161414 141.444,2.527 L141.444,5.248 L139.693,5.248 C139.494177,5.248 139.333,5.40917749 139.333,5.608 L139.333,6.188 C139.333,6.387 139.494,6.548 139.693,6.548 L141.444,6.548 L141.444,14.292 C141.444,14.893 141.501,15.403 141.615,15.813 C141.735,16.245 141.916,16.597 142.152,16.864 C142.395,17.136 142.696,17.332 143.046,17.442 C143.399358,17.5486002 143.76694,17.6005339 144.136,17.596 L144.414,17.59 C144.530518,17.5854604 144.646894,17.5777909 144.763,17.567 L145.103,17.53 C145.234,17.512 145.351,17.484 145.453,17.448 C145.617526,17.3880192 145.715023,17.2183483 145.684,17.046 L145.588,16.51 L145.588,16.51 Z" id="Shape" fill="#81B441"></path>
        </g>
    </g>
</svg>